<?xml version="1.0" standalone="no"?>
<!DOCTYPE svg PUBLIC "-//W3C//DTD SVG 20010904//EN"
 "http://www.w3.org/TR/2001/REC-SVG-20010904/DTD/svg10.dtd">
<svg version="1.0" xmlns="http://www.w3.org/2000/svg"
 width="1180.000000pt" height="1180.000000pt" viewBox="0 0 1180.000000 1180.000000"
 preserveAspectRatio="xMidYMid meet">
<metadata>
Created by potrace 1.14, written by Peter Selinger 2001-2017
</metadata>
<g transform="translate(0.000000,1180.000000) scale(0.100000,-0.100000)"
fill="#000000" stroke="none">
<path d="M5321 11710 c91 -83 148 -141 187 -191 23 -30 45 -58 50 -64 9 -11
22 -42 21 -51 0 -4 4 -10 9 -13 14 -9 51 -124 59 -183 8 -68 8 -192 -2 -243
-4 -22 -7 -47 -7 -55 0 -8 -2 -22 -5 -30 -3 -8 -7 -24 -8 -35 -9 -67 -57 -205
-72 -205 -7 0 -59 -16 -115 -36 -57 -19 -107 -36 -113 -37 -5 -2 -14 -5 -20
-8 -17 -10 -90 -33 -91 -28 0 2 -9 -3 -18 -11 -10 -8 -24 -15 -30 -16 -16 -2
-244 -114 -316 -155 -324 -184 -672 -482 -887 -762 -27 -34 -51 -64 -54 -67
-13 -11 -140 -200 -191 -285 -46 -76 -160 -300 -188 -370 -4 -11 -15 -36 -23
-55 -30 -72 -70 -185 -70 -197 0 -7 -3 -13 -7 -13 -4 0 -7 -6 -8 -12 -1 -24
-11 -57 -22 -77 -6 -12 -8 -21 -6 -21 3 0 1 -12 -5 -27 -6 -16 -12 -35 -14
-43 -2 -8 -8 -33 -13 -55 -6 -22 -13 -51 -16 -65 -2 -14 -12 -59 -20 -100 -9
-41 -18 -91 -20 -110 -3 -19 -5 -35 -6 -35 -1 0 -3 -18 -6 -40 -2 -22 -6 -53
-9 -70 -12 -62 -19 -398 -12 -553 1 -30 -1 -56 -6 -59 -4 -2 -29 -6 -55 -8
-70 -6 -126 -14 -202 -30 -14 -3 -34 -7 -45 -9 -11 -3 -41 -11 -67 -19 -26 -8
-49 -12 -52 -9 -4 3 -6 1 -6 -5 0 -5 -7 -10 -15 -11 -8 -1 -22 -3 -30 -4 -8
-1 -15 -5 -15 -10 0 -4 -3 -7 -7 -6 -12 2 -39 -9 -153 -65 -58 -29 -111 -57
-118 -64 -6 -6 -21 -15 -32 -18 -11 -3 -20 -11 -20 -16 0 -5 -6 -9 -13 -9 -7
0 -22 -8 -33 -18 -10 -10 -35 -29 -54 -42 -35 -25 -67 -52 -122 -102 -17 -16
-34 -28 -40 -28 -5 0 -7 -4 -4 -8 3 -5 -6 -15 -19 -22 -14 -7 -25 -16 -25 -19
0 -3 -16 -24 -36 -46 -20 -22 -52 -60 -73 -85 -20 -25 -39 -46 -43 -48 -5 -2
-8 -8 -8 -13 0 -6 -9 -19 -20 -31 -11 -12 -20 -28 -20 -35 0 -7 -4 -13 -8 -13
-5 0 -17 -17 -28 -37 -12 -21 -37 -68 -58 -105 -20 -38 -34 -68 -30 -68 5 0 3
-5 -4 -12 -22 -22 -13 -30 12 -11 13 10 32 24 42 30 11 7 36 24 57 38 20 13
37 22 37 18 0 -3 6 -1 13 5 44 36 206 59 292 40 17 -4 41 -9 54 -12 54 -12
150 -68 214 -125 37 -34 65 -61 62 -61 -3 0 8 -13 23 -30 16 -16 51 -67 77
-112 27 -46 54 -90 60 -98 7 -8 16 -26 20 -39 4 -14 16 -34 26 -45 11 -11 19
-25 19 -32 0 -7 6 -17 13 -21 6 -4 28 -30 47 -58 19 -27 41 -57 50 -66 122
-132 197 -201 280 -259 19 -14 38 -29 41 -33 3 -5 8 -8 10 -6 2 1 24 -10 49
-26 57 -36 192 -98 250 -114 25 -8 52 -16 60 -19 20 -7 28 -9 75 -16 118 -20
245 -32 360 -35 37 -1 44 -6 85 -61 43 -58 56 -75 90 -117 8 -10 33 -42 55
-71 21 -28 43 -52 47 -52 4 0 8 -5 8 -11 0 -6 23 -39 50 -73 28 -33 54 -66 58
-71 4 -6 32 -42 62 -80 93 -117 126 -167 168 -250 49 -97 73 -162 87 -240 2
-11 6 -31 10 -45 10 -40 16 -109 17 -200 2 -113 -6 -177 -37 -318 -16 -70 -83
-216 -140 -307 -68 -107 -211 -252 -287 -291 -18 -9 -35 -20 -38 -23 -12 -16
-114 -39 -172 -39 -104 0 -190 46 -291 154 -28 31 -68 72 -87 90 -106 100
-136 126 -188 166 -31 23 -59 46 -62 49 -12 16 -258 171 -318 201 -37 18 -68
36 -70 41 -2 4 -9 7 -16 7 -6 0 -38 13 -71 30 -33 16 -67 30 -76 30 -9 0 -19
3 -23 7 -6 6 -68 31 -91 36 -5 2 -16 6 -22 10 -7 5 -13 6 -13 2 0 -3 -16 1
-35 9 -19 8 -35 13 -35 11 0 -2 -15 1 -32 6 -39 12 -55 16 -99 23 -19 3 -45 8
-59 11 -98 20 -464 27 -585 11 -119 -15 -350 -71 -374 -90 -8 -6 -16 -10 -18
-8 -1 1 -4 2 -5 1 -2 0 -10 -2 -19 -4 -8 -1 -41 -14 -72 -29 -32 -14 -64 -26
-71 -26 -8 0 -16 -4 -18 -8 -2 -4 -38 -25 -80 -47 -43 -21 -78 -43 -78 -47 0
-4 -6 -8 -13 -8 -7 0 -22 -8 -33 -19 -11 -10 -30 -24 -42 -30 -37 -20 -28 -47
16 -50 207 -14 333 -50 482 -138 46 -28 217 -192 260 -251 14 -19 34 -46 46
-60 43 -55 224 -334 255 -393 8 -17 20 -34 25 -37 5 -4 15 -18 22 -32 16 -33
33 -59 55 -84 9 -11 17 -24 17 -29 0 -4 6 -14 13 -21 6 -8 19 -24 27 -36 65
-97 184 -230 277 -309 35 -30 169 -121 178 -121 4 0 21 -6 38 -14 61 -27 67
-29 160 -52 37 -10 67 -21 67 -26 0 -5 -9 -26 -20 -47 -10 -21 -16 -41 -13
-45 4 -3 2 -6 -4 -6 -9 0 -17 -14 -38 -70 -1 -3 -5 -12 -8 -20 -4 -8 -16 -51
-27 -94 -16 -64 -19 -101 -15 -195 2 -64 7 -138 10 -166 26 -225 -22 -435
-137 -596 -41 -58 -144 -169 -157 -169 -5 0 -11 -3 -13 -7 -5 -14 -98 -85 -98
-76 0 4 -4 3 -8 -3 -4 -6 -47 -34 -95 -63 -49 -29 -87 -54 -85 -56 3 -3 17 -6
108 -22 19 -4 112 -7 205 -7 188 0 233 4 415 39 41 8 87 16 102 19 15 2 32 7
38 11 5 3 20 8 31 10 40 8 159 48 224 75 11 5 43 18 70 30 28 11 59 26 70 32
11 7 47 26 80 43 83 42 225 135 225 147 0 5 4 7 9 4 5 -3 19 4 33 17 13 12 37
31 52 42 15 11 44 35 64 52 20 18 41 33 45 33 5 0 5 5 2 10 -3 6 -2 10 3 10
13 0 178 171 212 220 8 12 23 32 34 43 24 29 86 123 102 157 4 8 10 17 13 20
20 18 147 300 134 300 -3 0 1 7 8 17 8 9 13 18 11 20 -3 4 7 51 15 73 8 19 10
29 11 58 2 22 5 24 45 18 57 -7 101 -14 135 -21 15 -4 43 -8 62 -10 19 -3 53
-7 75 -10 52 -7 101 -12 205 -21 94 -8 510 -13 523 -6 5 2 41 6 80 8 79 5 152
12 152 14 0 1 18 3 40 5 61 5 170 21 170 25 0 1 16 3 35 6 19 2 69 11 110 20
41 9 82 17 90 19 8 1 35 8 60 15 25 7 52 13 60 15 8 2 49 13 90 25 41 11 82
23 90 25 12 3 91 29 160 53 8 3 17 6 20 7 3 1 19 7 35 14 39 17 155 61 178 68
9 3 17 9 17 12 0 4 6 8 13 8 18 0 255 117 367 182 122 70 324 201 328 212 2 5
10 9 18 9 8 0 17 7 20 15 4 8 10 15 16 15 8 0 198 148 271 211 218 190 432
416 592 629 27 36 54 70 60 77 30 36 35 43 35 47 0 3 33 55 74 116 41 60 72
110 69 110 -3 0 1 8 9 18 32 38 179 324 219 427 35 91 57 125 141 216 63 68
137 156 196 234 29 39 109 167 135 218 18 34 35 63 40 65 4 2 7 8 7 13 0 5 9
28 19 52 69 152 135 384 143 499 1 29 6 35 27 36 72 3 125 13 133 24 4 7 8 9
8 5 0 -17 120 56 163 100 57 57 100 140 113 218 10 67 10 80 -1 87 -6 5 -5 8
3 8 10 0 10 5 1 21 -8 16 -8 20 1 14 9 -6 9 -2 1 14 -7 11 -10 21 -7 21 2 0
-1 19 -6 43 -5 23 -12 53 -14 67 -3 14 -21 73 -40 132 -20 59 -35 110 -34 113
0 3 -6 18 -13 33 -8 15 -19 38 -24 52 -6 14 -24 53 -41 88 -18 35 -32 70 -32
78 0 8 -4 14 -9 14 -5 0 -11 8 -15 18 -19 59 -214 355 -277 423 -16 17 -29 34
-29 38 0 11 -197 218 -282 296 -84 77 -108 97 -180 149 -38 26 -68 51 -69 54
-1 4 -2 36 -4 72 -1 36 -5 99 -10 140 -4 41 -9 91 -10 110 -5 48 -14 120 -19
150 -3 14 -7 44 -11 67 -3 23 -19 95 -36 160 -17 65 -32 123 -33 128 -9 37
-71 219 -86 250 -8 17 -30 71 -35 85 -5 15 -28 69 -43 100 -9 19 -17 37 -17
40 -2 17 -166 328 -197 372 -10 14 -18 29 -18 33 0 4 -13 24 -30 45 -16 21
-30 41 -30 45 0 4 -11 21 -25 39 -14 17 -29 36 -33 41 -37 51 -146 187 -171
215 -106 119 -153 169 -206 220 -57 55 -73 70 -161 150 -32 30 -163 136 -225
183 -46 35 -79 57 -88 57 -5 0 -11 4 -13 8 -3 10 -127 93 -203 137 -27 17 -59
35 -70 42 -11 7 -31 18 -45 25 -14 7 -27 15 -30 18 -14 15 -425 207 -425 198
0 -1 -15 7 -32 17 -18 11 -34 27 -34 37 -2 21 -3 28 -13 50 -4 9 -9 22 -10 30
-7 43 -125 246 -148 256 -4 2 -8 7 -8 12 0 8 -138 150 -206 210 -101 91 -267
202 -399 266 -44 21 -82 39 -85 39 -3 0 -10 3 -16 7 -31 20 -224 80 -224 70 0
-4 -4 -2 -8 3 -7 11 -81 29 -157 41 -22 3 -53 7 -70 10 -16 2 -86 6 -154 9
l-124 5 34 -30z"/>
</g>
</svg>
